{"title":"Now You See Me -2 (2016) 1080p BDRip x264 AC3 5.1 ESub -DDR","uid":15611698,"size":3306351337,"categoryP":"video","categoryS":"hd___movies","magnet":"?xt=urn:btih:fe28c1ea00632487ed1a5a22e23251db05818acc&amp;dn=Now+You+See+Me+-2+%282016%29+1080p+BDRip+x264+AC3+5.1+ESub+-DDR&amp;tr=udp%3A%2F%2Ftracker.leechers-paradise.org%3A6969&amp;tr=udp%3A%2F%2Fzer0day.ch%3A1337&amp;tr=udp%3A%2F%2Fopen.demonii.com%3A1337&amp;tr=udp%3A%2F%2Ftracker.coppersurfer.tk%3A6969&amp;tr=udp%3A%2F%2Fexodus.desync.com%3A6969","seeders":61,"leechers":30,"uploader":"SaM","files":3,"time":1471790436,"description":"- HollyWooD Movie-\r\n\r\nNow You See Me\r\n- 2 -\r\n** 2016 **\r\n1080p / Blu-ray / x264\r\nEnglish AC3 5.1\r\nEnglish subs\r\n \nhttp://extraimago.com/image/w11g \nhttp://extraimago.com/image/w11X \nhttp://extraimago.com/image/w11P \nhttp://extraimago.com/image/w11G \nhttp://extraimago.com/image/w11r \nhttp://extraimago.com/image/w11Y \nhttp://extraimago.com/image/w11C \nhttp://extraimago.com/image/w11x \nhttp://extraimago.com/image/w11t \nhttp://extraimago.com/image/w11o \nhttp://extraimago.com/image/w11k \nhttp://extraimago.com/image/w11H \nhttp://extraimago.com/image/w11D \nhttp://extraimago.com/image/w115\r\n\r\nSOURCE: Russian Bluray @ HDC + iTunes (US) - Thank you\r\n\r\nFile size : 3.06 GiB\r\nDuration : 2h 9mn\r\nOverall bit rate : 3 384 Kbps\r\n\r\nVideo\r\nFormat : AVC\r\nFormat/Info : Advanced Video Codec\r\nFormat profile :   \r\nFormat settings, CABAC : Yes\r\nFormat settings, ReFrames : 4 frames\r\nCodec ID : V_MPEG4/ISO/AVC\r\nDuration : 2h 9mn\r\nBit rate : 3 000 Kbps\r\nWidth : 1 920 pixels\r\nHeight : 1 080 pixels\r\nDisplay aspect ratio : 16:9\r\nFrame rate mode : Constant\r\nFrame rate : 24.000 fps\r\ncolor space : YUV\r\nChroma subsampling : 4:2:0\r\nBit depth : 8 bits\r\nScan type : Progressive\r\nBits/(Pixel*Frame) : 0.060\r\nStream size : 2.71 GiB (89%)\r\n\r\nAudio\r\nFormat : AC-3\r\nFormat/Info : Audio Coding 3\r\nMode extension : CM (complete main)\r\nFormat settings, Endianness : Big\r\nCodec ID : A_AC3\r\nDuration : 2h 9mn\r\nBit rate mode : Constant\r\nBit rate : 384 Kbps\r\nChannel(s) : 6 channels\r\nChannel positions : Front: L C R, Side: L R, LFE\r\nSampling rate : 48.0 KHz\r\nFrame rate : 31.250 fps (1536 spf)\r\nCompression mode : Lossy\r\nStream size : 354 MiB (11%)\r\nLanguage : English\r\nDefault : Yes\r\nForced : No\r\n\r\nChapters = Yes\r\nSample : Included","torrent":{"xt":"urn:btih:fe28c1ea00632487ed1a5a22e23251db05818acc","amp;dn":"Now+You+See+Me+-2+%282016%29+1080p+BDRip+x264+AC3+5.1+ESub+-DDR","amp;tr":["udp%3A%2F%2Ftracker.leechers-paradise.org%3A6969","udp%3A%2F%2Fzer0day.ch%3A1337","udp%3A%2F%2Fopen.demonii.com%3A1337","udp%3A%2F%2Ftracker.coppersurfer.tk%3A6969","udp%3A%2F%2Fexodus.desync.com%3A6969"],"infoHash":"fe28c1ea00632487ed1a5a22e23251db05818acc","infoHashBuffer":{"type":"Buffer","data":[254,40,193,234,0,99,36,135,237,26,90,34,226,50,81,219,5,129,138,204]},"announce":[],"urlList":[]}}